<svg xmlns="http://www.w3.org/2000/svg" width="11.336" height="12.957" viewBox="0 0 11.336 12.957">
  <path id="AR" d="M1621.616,1266.442l-4.906-2.818a.763.763,0,0,0-.76,0l-4.906,2.818a.763.763,0,0,0-.382.661v5.8a.762.762,0,0,0,.382.661l4.906,2.818a.763.763,0,0,0,.76,0l4.906-2.818a.761.761,0,0,0,.383-.661v-5.8A.762.762,0,0,0,1621.616,1266.442Zm-1.109.508-4.176,2.4-4.176-2.4,4.176-2.4Zm-8.852.858,4.179,2.4v4.959l-4.179-2.4Zm5.172,7.359v-4.959l4.179-2.4v4.959Z" transform="translate(-1610.663 -1263.523)" fill="#222"/>
</svg>
