<svg xmlns="http://www.w3.org/2000/svg" width="16.646" height="19.025" viewBox="0 0 16.646 19.025">
  <path id="AR_WHITE" d="M1626.747,1267.809l-7.2-4.137a1.12,1.12,0,0,0-1.115,0l-7.2,4.137a1.12,1.12,0,0,0-.562.971v8.511a1.119,1.119,0,0,0,.562.971l7.2,4.137a1.12,1.12,0,0,0,1.115,0l7.2-4.137a1.119,1.119,0,0,0,.562-.971v-8.511A1.12,1.12,0,0,0,1626.747,1267.809Zm-1.629.746-6.132,3.522-6.132-3.522,6.132-3.522Zm-13,1.26,6.136,3.525v7.281l-6.136-3.525Zm7.594,10.806v-7.281l6.136-3.525v7.281Z" transform="translate(-1610.663 -1263.523)" fill="#fff"/>
</svg>
