<svg id="X" xmlns="http://www.w3.org/2000/svg" width="19.65" height="19.559" viewBox="0 0 19.65 19.559">
  <path id="Rounded_Rectangle_616_copy_5" data-name="Rounded Rectangle 616 copy 5" d="M8586,1198.092l16.889,16.889a1.1,1.1,0,0,1,0,1.551l-.468.469a1.1,1.1,0,0,1-1.552,0l-16.889-16.889a1.1,1.1,0,0,1,0-1.551l.469-.469A1.1,1.1,0,0,1,8586,1198.092Z" transform="translate(-8583.658 -1197.771)" fill="#fff"/>
  <path id="Rounded_Rectangle_616_copy_6" data-name="Rounded Rectangle 616 copy 6" d="M8601.28,1198.275l-16.844,16.843a1.094,1.094,0,0,0,0,1.547l.468.467a1.094,1.094,0,0,0,1.547,0l16.843-16.843a1.1,1.1,0,0,0,0-1.547l-.468-.467A1.092,1.092,0,0,0,8601.28,1198.275Z" transform="translate(-8583.964 -1197.894)" fill="#fff"/>
</svg>
