<svg xmlns="http://www.w3.org/2000/svg" width="40.825" height="40.859" viewBox="0 0 40.825 40.859">
  <g id="Grupo_651" data-name="Grupo 651" transform="translate(-21)">
    <g id="Ellipse_610_copy_3" data-name="Ellipse 610 copy 3" transform="translate(21)" fill="none" stroke="#fff" stroke-width="1">
      <ellipse cx="20.413" cy="20.429" rx="20.413" ry="20.429" stroke="none"/>
      <ellipse cx="20.413" cy="20.429" rx="19.913" ry="19.929" fill="none"/>
    </g>
    <g id="Grupo_163" data-name="Grupo 163" transform="translate(34 9)">
      <path id="Caminho_287" data-name="Caminho 287" d="M323.321,150.862v-.722c0-4.733.01-9.466-.009-14.2a1.618,1.618,0,0,1,1.44-1.694,1.557,1.557,0,0,1,1.693,1.613c.008,1.937,0,3.875,0,5.812q0,4.377,0,8.755v.42c.151-.136.246-.215.334-.3q1.578-1.569,3.154-3.141a1.57,1.57,0,0,1,2.291-.045,1.549,1.549,0,0,1-.081,2.262q-3.016,3.019-6.034,6.034a1.577,1.577,0,0,1-2.425,0q-3.02-3.015-6.034-6.035a1.569,1.569,0,1,1,2.212-2.217q1.548,1.548,3.089,3.1C323.047,150.6,323.145,150.694,323.321,150.862Z" transform="translate(-317.132 -134.243)" fill="#fff"/>
    </g>
  </g>
</svg>
