<svg id="Grupo_646" data-name="Grupo 646" xmlns="http://www.w3.org/2000/svg" width="18.745" height="18.745" viewBox="0 0 18.745 18.745">
  <path id="Caminho_1324" data-name="Caminho 1324" d="M.584,0A.583.583,0,0,0,0,.587v7.1a.587.587,0,0,0,.584.584H7.693a.585.585,0,0,0,.582-.584V.587A.583.583,0,0,0,7.693,0ZM11.052,0a.586.586,0,0,0-.589.582V7.691a.586.586,0,0,0,.589.584h7.1a.586.586,0,0,0,.589-.584V.587A.586.586,0,0,0,18.16,0H11.052ZM1.171,1.171H7.1V7.109H1.171Zm10.465,0h5.935V7.109H11.636ZM3.243,2.953a.292.292,0,0,0-.292.292V5.032a.292.292,0,0,0,.292.292H5.032a.292.292,0,0,0,.292-.292V3.246a.292.292,0,0,0-.292-.292Zm10.467,0a.292.292,0,0,0-.292.292V5.032a.292.292,0,0,0,.292.292H15.5a.29.29,0,0,0,.29-.292V3.246a.29.29,0,0,0-.29-.292Zm-2.716,7.514,0,0a.586.586,0,0,0-.529.582v3.555a.586.586,0,0,0,.589.582h2.967V18.16a.586.586,0,0,0,.582.584h3.555a.589.589,0,0,0,.589-.584h0V14.607a.589.589,0,0,0-.584-.589H15.189V11.052a.584.584,0,0,0-.589-.582H11.052A.52.52,0,0,0,10.994,10.467Zm-10.467,0A.584.584,0,0,0,0,11.052V18.16a.587.587,0,0,0,.584.584H7.693a.586.586,0,0,0,.582-.584V11.052a.583.583,0,0,0-.582-.582H.584a.25.25,0,0,0-.058,0Zm.644,1.167H7.1v5.935H1.171Zm10.465,0h2.382v2.382H11.636ZM3.243,13.418a.292.292,0,0,0-.292.292V15.5a.292.292,0,0,0,.292.292H5.032a.292.292,0,0,0,.292-.292V13.711a.292.292,0,0,0-.292-.292Zm11.946,1.771h2.384v2.382H15.189Z" transform="translate(0 0)"/>
</svg>
