<svg id="Grupo_160" data-name="Grupo 160" xmlns="http://www.w3.org/2000/svg" width="24.618" height="19.376" viewBox="0 0 24.618 19.376">
  <g id="Grupo_159" data-name="Grupo 159">
    <g id="Grupo_158" data-name="Grupo 158">
      <path id="Caminho_283" data-name="Caminho 283" d="M2193.14,884.043a2.647,2.647,0,0,0-1.942-.819h-3.885v-.047a2.1,2.1,0,0,0-.632-1.521,2.142,2.142,0,0,0-1.521-.632h-7.02a2.157,2.157,0,0,0-2.177,2.153v.047H2172.1a2.647,2.647,0,0,0-1.942.819,2.782,2.782,0,0,0-.819,1.942v11.654a2.647,2.647,0,0,0,.819,1.942,2.782,2.782,0,0,0,1.942.819h19.1a2.647,2.647,0,0,0,1.942-.819,2.782,2.782,0,0,0,.819-1.942V885.985A2.647,2.647,0,0,0,2193.14,884.043Zm-.4,13.6h-.023a1.518,1.518,0,0,1-1.521,1.521h-19.1a1.518,1.518,0,0,1-1.521-1.521V885.985a1.518,1.518,0,0,1,1.521-1.521h4.517a.629.629,0,0,0,.632-.632v-.679a.881.881,0,0,1,.913-.913h7a.881.881,0,0,1,.913.913v.679a.629.629,0,0,0,.632.632h4.516a1.518,1.518,0,0,1,1.521,1.521Z" transform="translate(-2169.341 -881.024)" fill="#222"/>
      <path id="Caminho_284" data-name="Caminho 284" d="M2223,917.806a5.753,5.753,0,1,0,4.072,1.685A5.767,5.767,0,0,0,2223,917.806Zm3.182,8.963a4.52,4.52,0,0,1-6.365,0,4.474,4.474,0,0,1-1.311-3.183,4.573,4.573,0,0,1,1.311-3.183,4.473,4.473,0,0,1,3.183-1.311,4.572,4.572,0,0,1,3.182,1.311,4.472,4.472,0,0,1,1.311,3.183A4.379,4.379,0,0,1,2226.183,926.769Z" transform="translate(-2210.691 -912.775)" fill="#222"/>
      <circle id="Elipse_16" data-name="Elipse 16" cx="1.147" cy="1.147" r="1.147" transform="translate(19.493 5.008)" fill="#222"/>
    </g>
  </g>
</svg>
