<svg xmlns="http://www.w3.org/2000/svg" width="65.163" height="61.3" viewBox="0 0 65.163 61.3">
  <g id="phone" transform="translate(-48.3 -60.8)">
    <g id="Grupo_366" data-name="Grupo 366" transform="translate(59.255 71.199)">
      <g id="Grupo_365" data-name="Grupo 365" transform="translate(0 0)">
        <path id="Caminho_904" data-name="Caminho 904" d="M159.71,134.77a.761.761,0,0,1-.709-.8v-3.281a2.4,2.4,0,0,0-2.388-2.388h-14.79a2.4,2.4,0,0,0-2.388,2.388v2.85a1.047,1.047,0,0,1-.786.955,6.12,6.12,0,0,0-3.667,3.1,2.144,2.144,0,0,1-1.078.94,8.42,8.42,0,0,0-4.1,2.866l-6.963,10.075a21.743,21.743,0,0,0-2.835,6.039l-.57,2.342a.725.725,0,0,0,.431.924.737.737,0,0,0,.8-.632l.57-2.342a20.993,20.993,0,0,1,2.65-5.623l6.963-10.075a7.027,7.027,0,0,1,5.161-2.711h10.522a1.894,1.894,0,0,1,1.895,1.895v.4a1.894,1.894,0,0,1-1.895,1.895h-9.552a.632.632,0,1,0,0,1.263h1.664a.805.805,0,0,1,.8.8v.185a5.3,5.3,0,0,1-.246,1.556c-2.326,6.147-9.629,7.056-9.968,7.087a.666.666,0,0,0-.431.231.633.633,0,0,0,.493,1.032h.062c.077-.015,6.255-.77,9.644-5.377.262-.354.447-.308.447.139v10.568a2.361,2.361,0,0,0,.755,1.725c.324.308.385.662.015.909a13.383,13.383,0,0,1-7.441,2.126,12.014,12.014,0,0,1-1.864-.123.537.537,0,0,0-.632.539V168.2a.539.539,0,1,0,1.078,0v-.678a.6.6,0,0,1,.616-.632c.185,0,.4.015.616.015a14.4,14.4,0,0,0,9.043-2.927,2.565,2.565,0,0,1,1.4-.524h13.573A2.4,2.4,0,0,0,159,161.068v-6.732a.75.75,0,0,1,.709-.8h.709a2.469,2.469,0,0,0,2.234-2.65v-.216a3,3,0,0,0-.4-1.494,1.255,1.255,0,0,1,0-1.232,3,3,0,0,0,.4-1.494v-.216a3,3,0,0,0-.4-1.494,1.255,1.255,0,0,1,0-1.232,3,3,0,0,0,.4-1.494V141.8a3,3,0,0,0-.4-1.494,1.255,1.255,0,0,1,0-1.232,3,3,0,0,0,.4-1.494v-.216a2.469,2.469,0,0,0-2.234-2.65C160.4,134.77,160.1,134.77,159.71,134.77Zm-17.147,10.122h3.975a3.176,3.176,0,0,0,3.174-3.158v-.4a3.166,3.166,0,0,0-3.174-3.158h-3.975a.805.805,0,0,1-.8-.8v-3.913a.805.805,0,0,1,.8-.8h13.326a.805.805,0,0,1,.8.8v24.634a.805.805,0,0,1-.8.8H142.563a.805.805,0,0,1-.8-.8V145.678A.792.792,0,0,1,142.563,144.892Zm14.05,17.686h-14.79a1.446,1.446,0,0,1-1.448-1.448V148.713a3.721,3.721,0,0,0-.031-.724,7.119,7.119,0,0,0,.231-.678,12.187,12.187,0,0,0,.385-1.6c.077-.431.154-.786.216-.786s.108.354.108.8v13.434a.237.237,0,0,0,.231.231h15.375a.237.237,0,0,0,.231-.231V132.444a.237.237,0,0,0-.231-.231h-15.36a.237.237,0,0,0-.231.231v4.93a.805.805,0,0,1-.8.8h-3.59c-.431,0-.647-.324-.385-.678a4.644,4.644,0,0,1,3.05-1.88c.431-.062.786-.324.786-.662,0-.324.015-.955.015-1.387v-2.85a1.446,1.446,0,0,1,1.448-1.448h14.79a1.446,1.446,0,0,1,1.448,1.448V161.13A1.456,1.456,0,0,1,156.614,162.578ZM160.4,152.5h-.57c-.324,0-.57-.354-.57-.8v-1.756c0-.431.262-.8.57-.8h.57c.632,0,1.14.709,1.14,1.571v.216C161.559,151.794,161.035,152.5,160.4,152.5Zm0-4.437h-.57c-.324,0-.57-.354-.57-.8v-1.756c0-.431.262-.8.57-.8h.57c.632,0,1.14.709,1.14,1.571v.216C161.559,147.372,161.035,148.066,160.4,148.066Zm0-4.421h-.57c-.324,0-.57-.354-.57-.8v-1.756c0-.431.262-.8.57-.8h.57c.632,0,1.14.709,1.14,1.571v.216C161.559,142.936,161.035,143.644,160.4,143.644Zm0-4.437h-.57c-.324,0-.57-.354-.57-.8V136.65c0-.431.262-.8.57-.8h.57c.632,0,1.14.709,1.14,1.571v.216C161.559,138.5,161.035,139.207,160.4,139.207Z" transform="translate(-119.41 -128.3)" fill="#fff"/>
        <path id="Caminho_905" data-name="Caminho 905" d="M305.75,141.4h-2.619a.231.231,0,1,0,0,.462h2.619a.237.237,0,0,0,.231-.231A.218.218,0,0,0,305.75,141.4Z" transform="translate(-274.632 -139.382)" fill="#fff"/>
        <path id="Caminho_906" data-name="Caminho 906" d="M301.3,333.4h-2.7a1,1,0,0,0-1,1v.154a1,1,0,0,0,1,1h2.7a1,1,0,0,0,1-1V334.4A1,1,0,0,0,301.3,333.4Zm.539,1.155a.546.546,0,0,1-.539.539h-2.7a.546.546,0,0,1-.539-.539V334.4a.546.546,0,0,1,.539-.539h2.7a.546.546,0,0,1,.539.539Z" transform="translate(-270.148 -301.803)" fill="#fff"/>
      </g>
    </g>
    <g id="Grupo_375" data-name="Grupo 375" transform="translate(48.3 60.8)">
      <g id="Grupo_368" data-name="Grupo 368" transform="translate(29.892 0)">
        <g id="Grupo_367" data-name="Grupo 367">
          <path id="Caminho_907" data-name="Caminho 907" d="M246.949,62.325l-1.926-1.433a.486.486,0,0,0-.57,0l-1.926,1.433a.484.484,0,1,0,.585.77l1.633-1.217,1.633,1.217a.507.507,0,0,0,.293.092.473.473,0,0,0,.277-.863Z" transform="translate(-242.332 -60.8)" fill="#fff"/>
        </g>
      </g>
      <g id="Grupo_370" data-name="Grupo 370" transform="translate(29.899 58.902)">
        <g id="Grupo_369" data-name="Grupo 369">
          <path id="Caminho_908" data-name="Caminho 908" d="M247.093,443.328a.473.473,0,0,0-.678-.092l-1.633,1.217-1.633-1.217a.484.484,0,0,0-.585.77l1.926,1.433a.51.51,0,0,0,.585,0L247,444.005A.5.5,0,0,0,247.093,443.328Z" transform="translate(-242.375 -443.132)" fill="#fff"/>
        </g>
      </g>
      <g id="Grupo_372" data-name="Grupo 372" transform="translate(0 26.618)">
        <g id="Grupo_371" data-name="Grupo 371">
          <path id="Caminho_909" data-name="Caminho 909" d="M49.378,235.982l1.217-1.633a.484.484,0,1,0-.77-.585l-1.433,1.926a.486.486,0,0,0,0,.57l1.433,1.926a.467.467,0,0,0,.385.185.507.507,0,0,0,.293-.092.473.473,0,0,0,.092-.678Z" transform="translate(-48.3 -233.575)" fill="#fff"/>
        </g>
      </g>
      <g id="Grupo_374" data-name="Grupo 374" transform="translate(62.753 26.626)">
        <g id="Grupo_373" data-name="Grupo 373">
          <path id="Caminho_910" data-name="Caminho 910" d="M457.938,235.753l-1.433-1.926a.484.484,0,1,0-.77.585l1.217,1.633-1.217,1.633a.489.489,0,0,0,.092.678.507.507,0,0,0,.293.092.488.488,0,0,0,.385-.185l1.433-1.926A.464.464,0,0,0,457.938,235.753Z" transform="translate(-455.632 -233.632)" fill="#fff"/>
        </g>
      </g>
    </g>
  </g>
</svg>
