<svg xmlns="http://www.w3.org/2000/svg" width="162.666" height="162.985" viewBox="0 0 162.666 162.985">
  <g id="XMLID_194_" transform="translate(-0.501)">
    <path id="XMLID_195_" d="M10.057,9.556H32.992V0H.5V32.491h9.556Z" fill="#fff"/>
    <path id="XMLID_1037_" d="M188.6,190.036V92.968H162.146v9.556h16.9V115.5H167.081v9.556h11.967v13.607H151.717V124.066h-9.556v14.593H122.637V99.624h11.2V90.068h-11.2V72.4H71.259v51.378h41.822v35.1H97.735v21.6H76.194v9.556h46.443V180.48H107.291V168.435h15.346v-20.22h14.589v41.822H188.6Zm-9.556-9.556H146.782V148.215h32.266ZM80.815,81.959h32.266v32.266H80.815Z" transform="translate(-48.219 -49.34)" fill="#fff"/>
    <path id="XMLID_1051_" d="M357.077,72.4h26.3v9.556h-26.3Z" transform="translate(-242.993 -49.34)" fill="#fff"/>
    <path id="XMLID_1052_" d="M136.413,135.563h9.87v9.556h-9.87Z" transform="translate(-92.619 -92.381)" fill="#fff"/>
    <path id="XMLID_1061_" d="M341.092,346.049h9.87v9.556h-9.87Z" transform="translate(-232.1 -235.82)" fill="#fff"/>
    <path id="XMLID_1062_" d="M287.523,72.4h9.87v9.556h-9.87Z" transform="translate(-195.595 -49.34)" fill="#fff"/>
    <path id="XMLID_1063_" d="M293.352,174.775h9.87v9.556h-9.87Z" transform="translate(-199.567 -119.103)" fill="#fff"/>
    <path id="XMLID_1064_" d="M86.259,343.882h9.87v9.556h-9.87Z" transform="translate(-58.441 -234.343)" fill="#fff"/>
    <path id="XMLID_1065_" d="M79.8,280.4h27.746v9.556H79.8Z" transform="translate(-54.039 -191.084)" fill="#fff"/>
    <path id="XMLID_1066_" d="M10.057,409.668H.5v32.491H32.992V432.6H10.057Z" transform="translate(0 -279.174)" fill="#fff"/>
    <path id="XMLID_1067_" d="M409.167,0V9.556H432.1V32.491h9.556V0Z" transform="translate(-278.491)" fill="#fff"/>
    <path id="XMLID_1068_" d="M432.1,432.6H409.167v9.556h32.491V409.668H432.1Z" transform="translate(-278.491 -279.174)" fill="#fff"/>
  </g>
</svg>
