<svg id="SOUND" xmlns="http://www.w3.org/2000/svg" width="14.157" height="12.51" viewBox="0 0 14.157 12.51">
  <path id="Caminho_295" data-name="Caminho 295" d="M2142.477,1218.678v-.927a5.791,5.791,0,1,0-11.583,0v.927a3.217,3.217,0,0,0,1.93,5.792.643.643,0,0,0,.644-.644v-5.148a.643.643,0,0,0-.644-.644,3.18,3.18,0,0,0-.643.064v-.344a4.5,4.5,0,0,1,9.009,0v.344a3.185,3.185,0,0,0-.644-.064.643.643,0,0,0-.643.644v5.148a.643.643,0,0,0,.643.644,3.218,3.218,0,0,0,1.931-5.792Z" transform="translate(-2129.607 -1211.96)" fill="#222"/>
</svg>
