<svg id="SOUND_WHITE" xmlns="http://www.w3.org/2000/svg" width="20.788" height="18.369" viewBox="0 0 20.788 18.369">
  <path id="Caminho_295" data-name="Caminho 295" d="M2148.505,1221.825v-1.361a8.5,8.5,0,0,0-17.008,0v1.361a4.725,4.725,0,0,0,2.834,8.5.944.944,0,0,0,.945-.945v-7.559a.944.944,0,0,0-.945-.945,4.648,4.648,0,0,0-.945.095v-.5a6.614,6.614,0,0,1,13.229,0v.5a4.655,4.655,0,0,0-.945-.095.944.944,0,0,0-.945.945v7.559a.944.944,0,0,0,.945.945,4.724,4.724,0,0,0,2.834-8.5Z" transform="translate(-2129.608 -1211.96)" fill="#fff"/>
</svg>
